<?xml version="1.0" standalone="yes"?>
<svg width="201" height="200">
<path style="fill:#000000; stroke:none;" d="M0 0L0 31C2.58986 26.9047 3.88134 22.1174 6.54784 18C12.1418 9.36237 21.0344 3.3671 31 1C22.6332 -2.51083 9.07618 0 0 0z"/>
<path style="fill:#06509a; stroke:none;" d="M31 0.517746C16.3368 3.64615 5.20975 14.7961 1.04321 29C-2.23036 40.1597 0 54.4277 0 66L0 142C0 157.237 -1.66587 172.003 7.92747 184.996C18.1608 198.857 33.2945 200 49 200L129 200C141.692 200 156.575 202.133 169 199.482C183.663 196.354 194.79 185.204 198.957 171C202.23 159.84 200 145.572 200 134L200 58C200 42.7625 201.666 27.9974 192.073 15.0039C181.839 1.14346 166.705 0 151 0L71 0C58.3084 0 43.4246 -2.13303 31 0.517746z"/>
<path style="fill:#000000; stroke:none;" d="M169 0C172.763 2.37999 177.159 3.59354 181 5.9267C188.723 10.6186 194.184 17.6729 197.547 26C202.587 38.4799 200 54.7415 200 68L200 137C200 147.722 201.979 160.715 198.64 171C194.118 184.929 183.348 195.592 169 199C172.699 200.552 177.017 200 181 200L201 200L201 0L169 0M180 181C148.382 180.347 106.565 171.435 92.8758 139C85.5361 121.61 89.6353 99.9955 102.174 86.0008C109.343 77.9985 119.096 72.4113 130 75C126.044 79.4489 122.946 84.8374 124.808 91C127.692 100.549 140.955 105.374 148.671 98.4421C153.14 94.4264 153.998 88.6764 153.998 83C153.998 66.6148 141.051 54.6702 126 50.4282C117.794 48.1154 110.312 48.7683 102 48.9853C64.718 49.9586 23.8038 72.0615 10.966 109C8.21202 116.924 10 127.683 10 136C10 148.1 7.83398 162.986 13.9051 174C22.0538 188.783 36.9226 190 52 190L111 190L153 190C162.771 189.996 173.372 188.999 180 181M0 169L0 200L31 200C24.6744 196 17.6949 194.219 12.0903 188.826C6.09672 183.06 4.25392 175.727 0 169z"/>
</svg>
